<svg width="1018" height="380" viewBox="0 0 1018 380" fill="none" xmlns="http://www.w3.org/2000/svg">
<path d="M1017 379.998C1017.55 379.998 1018 379.55 1018 378.998C1018 378.445 1017.55 377.998 1017 377.998V379.998ZM0.166016 379.998H1017V377.998H0.166016L0.166016 379.998Z" fill="#E0E0E0"/>
<path d="M1016.83 326C1017.39 326 1017.83 325.552 1017.83 325C1017.83 324.448 1017.39 324 1016.83 324V326ZM0 326L1016.83 326V324L0 324L0 326Z" fill="#E0E0E0"/>
<path d="M1016.83 218C1017.39 218 1017.83 217.552 1017.83 217C1017.83 216.448 1017.39 216 1016.83 216V218ZM0 218L1016.83 218V216L0 216L0 218Z" fill="#E0E0E0"/>
<path d="M1016.83 272C1017.39 272 1017.83 271.552 1017.83 271C1017.83 270.448 1017.39 270 1016.83 270V272ZM0 272L1016.83 272V270L0 270L0 272Z" fill="#E0E0E0"/>
<path d="M1017 163.998C1017.55 163.998 1018 163.55 1018 162.998C1018 162.445 1017.55 161.998 1017 161.998V163.998ZM0.166016 163.998L1017 163.998V161.998L0.166016 161.998L0.166016 163.998Z" fill="#E0E0E0"/>
<path d="M1016.83 110C1017.39 110 1017.83 109.552 1017.83 109C1017.83 108.448 1017.39 108 1016.83 108V110ZM0 110L1016.83 110V108L0 108L0 110Z" fill="#E0E0E0"/>
<path d="M1016.83 56C1017.39 56 1017.83 55.5523 1017.83 55C1017.83 54.4477 1017.39 54 1016.83 54V56ZM0 56L1016.83 56V54L0 54L0 56Z" fill="#E0E0E0"/>
<path d="M1016.83 2C1017.39 2 1017.83 1.55228 1017.83 1C1017.83 0.447715 1017.39 0 1016.83 0V2ZM0 2L1016.83 2V0L0 0L0 2Z" fill="#E0E0E0"/>
</svg>
