<svg width="619" height="380" viewBox="0 0 619 380" fill="none" xmlns="http://www.w3.org/2000/svg">
<path d="M618.001 379.998C618.553 379.998 619.001 379.55 619.001 378.998C619.001 378.445 618.553 377.998 618.001 377.998V379.998ZM0.101562 379.998H618.001V377.998H0.101563L0.101562 379.998Z" fill="#E0E0E0"/>
<path d="M617.899 326C618.451 326 618.899 325.552 618.899 325C618.899 324.448 618.451 324 617.899 324V326ZM0 326H617.899V324H0L0 326Z" fill="#E0E0E0"/>
<path d="M617.899 218C618.451 218 618.899 217.552 618.899 217C618.899 216.448 618.451 216 617.899 216V218ZM0 218L617.899 218V216L0 216L0 218Z" fill="#E0E0E0"/>
<path d="M617.899 272C618.451 272 618.899 271.552 618.899 271C618.899 270.448 618.451 270 617.899 270V272ZM0 272H617.899V270H0L0 272Z" fill="#E0E0E0"/>
<path d="M618.001 163.998C618.553 163.998 619.001 163.55 619.001 162.998C619.001 162.445 618.553 161.998 618.001 161.998V163.998ZM0.101562 163.998L618.001 163.998V161.998L0.101563 161.998L0.101562 163.998Z" fill="#E0E0E0"/>
<path d="M617.899 110C618.451 110 618.899 109.552 618.899 109C618.899 108.448 618.451 108 617.899 108V110ZM0 110L617.899 110V108L0 108L0 110Z" fill="#E0E0E0"/>
<path d="M617.899 56C618.451 56 618.899 55.5523 618.899 55C618.899 54.4477 618.451 54 617.899 54V56ZM0 56L617.899 56V54L0 54L0 56Z" fill="#E0E0E0"/>
<path d="M617.899 2C618.451 2 618.899 1.55228 618.899 1C618.899 0.447715 618.451 0 617.899 0V2ZM0 2L617.899 2V0L0 0L0 2Z" fill="#E0E0E0"/>
</svg>
