<svg width="274" height="283" viewBox="0 0 274 283" fill="none" xmlns="http://www.w3.org/2000/svg">
<path d="M274 216.438H0V216.58H274V216.438Z" fill="#EBEBEB"/>
<path d="M237.717 222.46H219.567V222.602H237.717V222.46Z" fill="#EBEBEB"/>
<path d="M171.562 222.393H166.8V222.534H171.562V222.393Z" fill="#EBEBEB"/>
<path d="M246.545 225.545H236.029V225.687H246.545V225.545Z" fill="#EBEBEB"/>
<path d="M62.8009 227.424H39.1328V227.566H62.8009V227.424Z" fill="#EBEBEB"/>
<path d="M60.7677 221.244H57.2988V221.385H60.7677V221.244Z" fill="#EBEBEB"/>
<path d="M136.151 221.849H102.777V221.991H136.151V221.849Z" fill="#EBEBEB"/>
<path d="M129.876 191.195H24.0631C23.2341 191.193 22.4396 190.852 21.854 190.246C21.2684 189.64 20.9395 188.819 20.9395 187.963V34.3334C20.9467 33.4822 21.2788 32.6683 21.8636 32.0684C22.4485 31.4686 23.2388 31.1313 24.0631 31.1299H129.876C130.706 31.1299 131.502 31.4704 132.089 32.0765C132.676 32.6826 133.005 33.5046 133.005 34.3617V187.963C133.005 188.82 132.676 189.642 132.089 190.248C131.502 190.854 130.706 191.195 129.876 191.195ZM24.0631 31.2431C23.2705 31.2446 22.5108 31.5708 21.9509 32.1502C21.3909 32.7296 21.0765 33.5148 21.0765 34.3334V187.963C21.0765 188.781 21.3909 189.567 21.9509 190.146C22.5108 190.725 23.2705 191.052 24.0631 191.053H129.876C130.669 191.052 131.43 190.726 131.991 190.146C132.551 189.567 132.867 188.782 132.868 187.963V34.3334C132.867 33.5143 132.551 32.7291 131.991 32.1499C131.43 31.5706 130.669 31.2446 129.876 31.2431H24.0631Z" fill="#EBEBEB"/>
<path d="M248.414 191.195H142.595C141.765 191.193 140.97 190.852 140.384 190.246C139.797 189.641 139.467 188.82 139.466 187.963V34.3334C139.474 33.4817 139.808 32.6677 140.394 32.0681C140.979 31.4684 141.77 31.1313 142.595 31.1299H248.414C249.237 31.1328 250.026 31.4708 250.61 32.0704C251.193 32.6701 251.525 33.4832 251.532 34.3334V187.963C251.532 188.818 251.204 189.638 250.619 190.244C250.035 190.85 249.242 191.192 248.414 191.195ZM142.595 31.2431C141.802 31.2446 141.042 31.5706 140.481 32.1499C139.92 32.7291 139.604 33.5143 139.603 34.3334V187.963C139.604 188.782 139.92 189.567 140.481 190.146C141.042 190.726 141.802 191.052 142.595 191.053H248.414C249.207 191.052 249.967 190.726 250.528 190.146C251.089 189.567 251.404 188.782 251.406 187.963V34.3334C251.404 33.5143 251.089 32.7291 250.528 32.1499C249.967 31.5706 249.207 31.2446 248.414 31.2431H142.595Z" fill="#EBEBEB"/>
<path d="M235.032 54.5225H38.9688V138.794H235.032V54.5225Z" fill="#F0F0F0"/>
<path d="M231.195 134.838V58.4902L42.8039 58.4902V134.838H231.195Z" fill="#FAFAFA"/>
<path d="M67.6064 134.833L86.9289 58.4849H101.177L81.8544 134.833H67.6064Z" fill="white"/>
<path d="M85.1426 134.833L104.465 58.4849H110.838L91.5158 134.833H85.1426Z" fill="white"/>
<path d="M116.324 134.833L135.652 58.4849H149.9L130.572 134.833H116.324Z" fill="white"/>
<path d="M152.251 134.833L171.573 58.4849H177.952L158.624 134.833H152.251Z" fill="white"/>
<path d="M93.2754 134.838V58.4902H92.3V134.838H93.2754Z" fill="#E0E0E0"/>
<path d="M43.7793 134.838L43.7793 58.4902H42.8039L42.8039 134.838H43.7793Z" fill="#E0E0E0"/>
<path d="M92.2998 134.838V58.4902H88.4638V134.838H92.2998Z" fill="#F0F0F0"/>
<path d="M140.836 134.838V58.4902H139.86V134.838H140.836Z" fill="#E0E0E0"/>
<path d="M139.86 134.838V58.4902H136.024V134.838H139.86Z" fill="#F0F0F0"/>
<path d="M188.419 134.833V58.4849H187.444V134.833H188.419Z" fill="#E0E0E0"/>
<path d="M187.443 134.833V58.4849H183.607V134.833H187.443Z" fill="#F0F0F0"/>
<path d="M236.007 138.794V54.5225H235.031V138.794H236.007Z" fill="#E0E0E0"/>
<path d="M238.199 48.7383H35.8006C35.5757 48.7368 35.3605 48.6439 35.2015 48.4797C35.0426 48.3155 34.9526 48.0932 34.9512 47.861C34.9512 47.6278 35.0405 47.4041 35.1996 47.2386C35.3588 47.0732 35.5748 46.9795 35.8006 46.978H238.199C238.425 46.9795 238.641 47.0732 238.8 47.2386C238.959 47.4041 239.048 47.6278 239.048 47.861C239.047 48.0932 238.957 48.3155 238.798 48.4797C238.639 48.6439 238.424 48.7368 238.199 48.7383Z" fill="#E0E0E0"/>
<g opacity="0.6">
<path d="M78.0026 45.2798H36.5957V199.045H78.0026V45.2798Z" fill="#F5F5F5"/>
<path d="M59.0304 200.301H55.5615L56.537 46.5361H58.0878L59.0304 200.301Z" fill="#E6E6E6"/>
<path d="M47.5392 200.301H45.8623L46.3336 46.5361H47.0843L47.5392 200.301Z" fill="#E6E6E6"/>
<path d="M70.5548 200.301H68.8779L69.3492 46.5361H70.1L70.5548 200.301Z" fill="#E6E6E6"/>
</g>
<g opacity="0.6">
<path d="M236.912 45.2798H195.505V199.045H236.912V45.2798Z" fill="#F5F5F5"/>
<path d="M211.732 200.301H208.263L209.238 46.5361H210.789L211.732 200.301Z" fill="#E6E6E6"/>
<path d="M204.076 200.301H202.404L202.87 46.5361H203.621L204.076 200.301Z" fill="#E6E6E6"/>
<path d="M221.793 200.301H220.121L220.592 46.5361H221.338L221.793 200.301Z" fill="#E6E6E6"/>
<path d="M230.319 200.301H228.647L229.113 46.5361H229.864L230.319 200.301Z" fill="#E6E6E6"/>
</g>
<path d="M178.215 215.476H185.997V169.415H178.215V215.476Z" fill="#E6E6E6"/>
<path d="M88.0036 215.476H181.213V169.415H88.0036V215.476Z" fill="#F0F0F0"/>
<path d="M179.119 215.476H176.313H92.0254V216.438H176.313H179.119H181.974V215.476H179.119Z" fill="#E0E0E0"/>
<path opacity="0.5" d="M90.6609 190.883H178.555V172.296H90.6609V190.883Z" fill="#FAFAFA"/>
<path opacity="0.5" d="M90.6609 212.471H178.555V193.883H90.6609V212.471Z" fill="#FAFAFA"/>
<path d="M103.983 181.59C103.983 181.994 103.867 182.389 103.65 182.725C103.432 183.061 103.123 183.323 102.762 183.477C102.4 183.632 102.002 183.672 101.619 183.594C101.235 183.515 100.882 183.32 100.606 183.034C100.329 182.749 100.141 182.385 100.064 181.988C99.988 181.592 100.027 181.181 100.177 180.808C100.327 180.434 100.58 180.115 100.906 179.891C101.231 179.666 101.613 179.546 102.005 179.546C102.264 179.546 102.522 179.599 102.762 179.702C103.002 179.805 103.22 179.955 103.404 180.145C103.587 180.335 103.733 180.56 103.832 180.808C103.932 181.056 103.983 181.321 103.983 181.59Z" fill="#E0E0E0"/>
<path d="M169.184 181.59C169.184 181.994 169.068 182.389 168.851 182.725C168.633 183.061 168.324 183.323 167.963 183.477C167.601 183.632 167.204 183.672 166.82 183.594C166.436 183.515 166.084 183.32 165.807 183.034C165.53 182.749 165.342 182.385 165.266 181.988C165.189 181.592 165.228 181.181 165.378 180.808C165.528 180.434 165.781 180.115 166.107 179.891C166.432 179.666 166.815 179.546 167.206 179.546C167.466 179.546 167.723 179.599 167.963 179.702C168.203 179.805 168.421 179.955 168.605 180.145C168.788 180.335 168.934 180.56 169.034 180.808C169.133 181.056 169.184 181.321 169.184 181.59Z" fill="#E0E0E0"/>
<path d="M102.005 205.22C103.097 205.22 103.983 204.306 103.983 203.177C103.983 202.049 103.097 201.134 102.005 201.134C100.912 201.134 100.026 202.049 100.026 203.177C100.026 204.306 100.912 205.22 102.005 205.22Z" fill="#E0E0E0"/>
<path d="M169.184 203.194C169.184 203.598 169.068 203.993 168.851 204.329C168.633 204.665 168.324 204.927 167.963 205.081C167.601 205.236 167.204 205.276 166.82 205.198C166.436 205.119 166.084 204.924 165.807 204.638C165.53 204.353 165.342 203.989 165.266 203.592C165.189 203.196 165.228 202.785 165.378 202.412C165.528 202.038 165.781 201.719 166.107 201.495C166.432 201.27 166.815 201.15 167.206 201.15C167.73 201.15 168.234 201.366 168.605 201.749C168.976 202.132 169.184 202.652 169.184 203.194Z" fill="#E0E0E0"/>
<path d="M136.584 181.59C136.584 181.994 136.467 182.389 136.25 182.725C136.033 183.061 135.724 183.323 135.362 183.477C135.001 183.632 134.603 183.672 134.219 183.594C133.836 183.515 133.483 183.32 133.206 183.034C132.93 182.749 132.741 182.385 132.665 181.988C132.589 181.592 132.628 181.181 132.778 180.808C132.927 180.434 133.181 180.115 133.506 179.891C133.831 179.666 134.214 179.546 134.605 179.546C134.865 179.546 135.122 179.599 135.362 179.702C135.602 179.805 135.82 179.955 136.004 180.145C136.188 180.335 136.334 180.56 136.433 180.808C136.532 181.056 136.584 181.321 136.584 181.59Z" fill="#E0E0E0"/>
<path d="M134.605 205.22C135.698 205.22 136.584 204.306 136.584 203.177C136.584 202.049 135.698 201.134 134.605 201.134C133.513 201.134 132.627 202.049 132.627 203.177C132.627 204.306 133.513 205.22 134.605 205.22Z" fill="#E0E0E0"/>
<path d="M175.448 161.593C175.448 163.667 174.65 165.657 173.229 167.124C171.809 168.591 169.883 169.415 167.874 169.415C165.866 169.415 163.939 168.591 162.519 167.124C161.099 165.657 160.301 163.667 160.301 161.593H175.448Z" fill="#F0F0F0"/>
<path d="M115.568 160.178C115.568 162.623 114.627 164.968 112.953 166.697C111.279 168.426 109.008 169.398 106.641 169.398C104.273 169.398 102.003 168.426 100.329 166.697C98.6544 164.968 97.7139 162.623 97.7139 160.178H115.568Z" fill="#F0F0F0"/>
<path d="M153.944 163.987C153.944 165.427 153.391 166.807 152.405 167.825C151.419 168.843 150.083 169.415 148.689 169.415C147.295 169.415 145.958 168.843 144.973 167.825C143.987 166.807 143.434 165.427 143.434 163.987H153.944Z" fill="#F0F0F0"/>
<path d="M137 241.999C195.681 241.999 243.251 239.13 243.251 235.592C243.251 232.053 195.681 229.185 137 229.185C78.3186 229.185 30.748 232.053 30.748 235.592C30.748 239.13 78.3186 241.999 137 241.999Z" fill="#F5F5F5"/>
<path d="M190.786 65.2936C189.619 64.088 187.372 59.5204 189.526 57.3696C191.68 55.2188 193.598 57.1715 193.746 58.2186C193.894 59.2657 193.499 68.0897 190.786 65.2936Z" fill="#12517F"/>
<path d="M190.293 229.598L185.399 229.643L184.067 217.961L188.956 217.916L190.293 229.598Z" fill="#FFC3BD"/>
<path d="M185.394 229.06L190.732 229.009C190.83 229.011 190.926 229.044 191.004 229.105C191.083 229.166 191.141 229.252 191.17 229.349L192.463 233.826C192.498 233.93 192.507 234.041 192.491 234.15C192.475 234.259 192.434 234.362 192.371 234.451C192.308 234.54 192.225 234.612 192.13 234.661C192.034 234.709 191.929 234.734 191.822 234.732C189.899 234.732 187.104 234.624 184.698 234.647C181.871 234.647 180.61 234.85 177.289 234.884C175.284 234.884 174.549 232.813 175.399 232.62C179.163 231.72 181.109 231.602 184.26 229.468C184.591 229.221 184.986 229.079 185.394 229.06Z" fill="#12517F"/>
<path opacity="0.2" d="M184.067 217.967L184.758 223.989L189.646 223.944L188.961 217.921L184.067 217.967Z" fill="#12517F"/>
<path d="M183.372 229.96C183.899 229.95 184.425 229.884 184.939 229.762C184.963 229.758 184.986 229.746 185.003 229.727C185.02 229.709 185.03 229.685 185.032 229.66C185.034 229.635 185.029 229.611 185.017 229.59C185.006 229.568 184.988 229.551 184.966 229.541C184.736 229.422 182.681 228.409 182.117 228.766C182.065 228.8 182.022 228.848 181.993 228.904C181.964 228.961 181.95 229.024 181.952 229.088C181.951 229.197 181.974 229.305 182.02 229.403C182.065 229.501 182.132 229.587 182.215 229.654C182.558 229.884 182.964 229.991 183.372 229.96ZM184.544 229.598C183.487 229.79 182.681 229.75 182.352 229.479C182.295 229.433 182.25 229.373 182.221 229.305C182.191 229.237 182.178 229.163 182.183 229.088C182.179 229.065 182.183 229.041 182.193 229.02C182.202 228.999 182.218 228.981 182.237 228.969C182.544 228.777 183.706 229.23 184.544 229.598Z" fill="#12517F"/>
<path d="M184.917 229.796C184.943 229.794 184.968 229.784 184.988 229.768C185.005 229.755 185.017 229.737 185.024 229.717C185.031 229.697 185.032 229.675 185.027 229.654C185.027 229.564 184.643 227.39 183.481 227.526C183.174 227.56 183.087 227.724 183.07 227.849C182.988 228.415 184.243 229.513 184.868 229.784L184.917 229.796ZM183.58 227.758C184.281 227.758 184.632 228.941 184.753 229.456C184.106 229.083 183.251 228.222 183.3 227.883C183.3 227.883 183.3 227.786 183.509 227.764L183.58 227.758Z" fill="#12517F"/>
<path d="M186.835 90.8032L186.331 91.3692L185.86 91.8503C185.547 92.1672 185.224 92.4672 184.901 92.7615C184.258 93.3577 183.6 93.9237 182.928 94.4595C181.571 95.5731 180.143 96.5905 178.654 97.5046C177.903 97.9631 177.13 98.3989 176.346 98.8121C175.563 99.2253 174.735 99.5818 173.902 99.9441C172.194 100.648 170.415 101.151 168.598 101.444L168.192 101.506C167.929 101.541 167.663 101.558 167.398 101.557C166.787 101.551 166.183 101.428 165.617 101.195C165.054 100.962 164.54 100.622 164.099 100.193C163.747 99.8472 163.442 99.4552 163.189 99.0272C162.839 98.4061 162.575 97.7373 162.405 97.0405C162.272 96.5008 162.175 95.9524 162.115 95.3991C162.015 94.4424 161.988 93.4792 162.033 92.5182C162.071 91.6012 162.142 90.7183 162.241 89.8523C162.449 88.1147 162.745 86.4563 163.107 84.7583C163.468 83.0603 163.879 81.4925 164.411 79.8511L168.011 80.5869C167.88 83.7678 167.732 87.028 167.831 90.107C167.848 91.5367 167.995 92.9617 168.269 94.3633C168.323 94.6222 168.398 94.8759 168.494 95.1218C168.57 95.3142 168.663 95.4331 168.658 95.3821C168.626 95.2959 168.576 95.2184 168.51 95.1557C168.361 95.0067 168.186 94.8877 167.995 94.8048C167.798 94.7193 167.589 94.6676 167.376 94.652C167.277 94.652 167.233 94.652 167.173 94.652H167.233L167.348 94.618C168.646 94.2736 169.909 93.7997 171.119 93.203C172.384 92.5723 173.609 91.8577 174.785 91.0635C175.974 90.2485 177.147 89.3655 178.275 88.4316C178.823 87.9675 179.399 87.4808 179.919 86.9883L180.719 86.2412L181.103 85.8733L181.437 85.545L186.835 90.8032Z" fill="#FFC3BD"/>
<path d="M189.734 88.805C189.547 83.4677 185.306 81.6112 179.99 85.2506C177.647 86.7851 175.391 88.4576 173.233 90.2597L176.669 101.659C176.669 101.659 183.245 99.5024 187.048 95.2688C189.608 92.3935 189.799 90.6219 189.734 88.805Z" fill="#12517F"/>
<path opacity="0.2" d="M183.262 91.0806C183.262 91.0806 180.089 95.767 178.966 100.748C180.526 100.061 182.029 99.243 183.459 98.3027L183.262 91.0806Z" fill="#12517F"/>
<path d="M167.831 82.2791L169.672 77.9831L164.461 76.4097C164.461 76.4097 163.567 78.4642 164.077 81.9904L167.831 82.2791Z" fill="#FFC3BD"/>
<path d="M170.225 72.9458L165.693 73.5061L164.46 76.4097L169.671 77.9832L170.225 72.9458Z" fill="#FFC3BD"/>
<path d="M183.295 127.497C183.295 127.497 179.93 156.624 179.558 172.211C179.174 188.404 182.248 221.068 182.248 221.068L191.076 220.876C191.076 220.876 192.14 185.908 193.422 169.885C194.814 152.418 198.321 127.18 198.321 127.18L183.295 127.497Z" fill="#12517F"/>
<path opacity="0.6" d="M183.295 127.497C183.295 127.497 179.93 156.624 179.558 172.211C179.174 188.404 182.248 221.068 182.248 221.068L191.076 220.876C191.076 220.876 192.14 185.908 193.422 169.885C194.814 152.418 198.321 127.18 198.321 127.18L183.295 127.497Z" fill="white"/>
<path opacity="0.2" d="M193.811 135.744C189.865 144.726 190.923 164.791 193.164 173.394C193.247 172.143 193.334 170.96 193.422 169.868C194.337 158.355 196.162 143.475 197.318 134.663C196.244 133.055 195.044 132.931 193.811 135.744Z" fill="#12517F"/>
<path d="M192.162 221.266L181.783 221.482L181.016 217.921L192.036 217.893L192.162 221.266Z" fill="#12517F"/>
<path d="M212.098 229.598L207.21 229.643L205.878 217.961L210.766 217.916L212.098 229.598Z" fill="#FFC3BD"/>
<path d="M207.199 229.06L212.542 229.009C212.641 229.012 212.736 229.046 212.814 229.107C212.893 229.167 212.951 229.252 212.981 229.349L214.274 233.826C214.307 233.93 214.316 234.041 214.299 234.149C214.282 234.258 214.241 234.36 214.178 234.449C214.116 234.537 214.034 234.609 213.939 234.658C213.844 234.707 213.739 234.733 213.633 234.732C211.704 234.732 208.915 234.624 206.509 234.647C203.681 234.647 202.415 234.85 199.1 234.884C197.094 234.884 196.36 232.813 197.209 232.62C200.969 231.72 202.914 231.602 206.07 229.468C206.4 229.221 206.793 229.079 207.199 229.06Z" fill="#12517F"/>
<path opacity="0.2" d="M205.878 217.967L206.563 223.989L211.457 223.944L210.772 217.921L205.878 217.967Z" fill="#12517F"/>
<path d="M205.182 229.96C205.71 229.949 206.235 229.883 206.75 229.762C206.774 229.758 206.795 229.746 206.811 229.727C206.827 229.708 206.836 229.685 206.837 229.66C206.841 229.636 206.837 229.612 206.826 229.59C206.815 229.569 206.798 229.552 206.777 229.541C206.542 229.422 204.487 228.409 203.928 228.766C203.875 228.799 203.831 228.847 203.802 228.904C203.773 228.96 203.76 229.024 203.763 229.088C203.762 229.197 203.785 229.304 203.829 229.402C203.874 229.5 203.939 229.586 204.021 229.654C204.366 229.883 204.773 229.99 205.182 229.96ZM206.355 229.598C205.298 229.79 204.492 229.75 204.163 229.479C204.107 229.432 204.061 229.373 204.031 229.305C204 229.237 203.986 229.163 203.988 229.088C203.985 229.065 203.988 229.041 203.998 229.02C204.008 228.999 204.023 228.981 204.043 228.969C204.35 228.777 205.5 229.23 206.355 229.598Z" fill="#12517F"/>
<path d="M206.722 229.796C206.739 229.795 206.756 229.791 206.771 229.783C206.786 229.776 206.799 229.765 206.81 229.751C206.821 229.738 206.829 229.723 206.834 229.706C206.838 229.689 206.84 229.672 206.837 229.654C206.837 229.564 206.454 227.39 205.292 227.526C204.985 227.56 204.897 227.724 204.875 227.849C204.799 228.415 206.054 229.513 206.678 229.784L206.722 229.796ZM205.391 227.758C206.087 227.758 206.443 228.941 206.563 229.456C205.917 229.083 205.056 228.222 205.106 227.883C205.106 227.883 205.106 227.786 205.314 227.764L205.391 227.758Z" fill="#12517F"/>
<path d="M191.909 127.305C191.909 127.305 194.348 158.644 196.129 174.107C197.976 190.193 204.058 221.051 204.058 221.051L212.887 220.859C212.887 220.859 210.464 185.824 209.527 169.772C208.503 152.254 208.24 126.92 208.24 126.92L191.909 127.305Z" fill="#12517F"/>
<path opacity="0.6" d="M191.909 127.305C191.909 127.305 194.348 158.644 196.129 174.107C197.976 190.193 204.058 221.051 204.058 221.051L212.887 220.859C212.887 220.859 210.464 185.824 209.527 169.772C208.503 152.254 208.24 126.92 208.24 126.92L191.909 127.305Z" fill="white"/>
<path d="M213.972 221.266L203.588 221.482L202.826 217.921L213.846 217.893L213.972 221.266Z" fill="#12517F"/>
<path d="M182.687 83.8525C182.687 83.8525 179.076 97.6969 183.295 127.497C191.175 127.321 204.41 127.004 208.24 126.931C208.339 122.782 205.374 102.44 208.843 82.8281C206.347 82.383 203.823 82.1295 201.292 82.0696C197.586 81.9299 193.875 82.013 190.178 82.3187C187.646 82.6281 185.142 83.1409 182.687 83.8525Z" fill="#12517F"/>
<path opacity="0.2" d="M207.331 96.7857L203.248 93.2935C203.517 96.0216 205.906 102.706 207.166 106.091C207.144 103.125 207.172 99.9949 207.331 96.7857Z" fill="#12517F"/>
<path d="M192.726 91.8785L188.271 100.985C188.176 101.177 188.144 101.394 188.177 101.606C188.21 101.817 188.307 102.013 188.454 102.164C188.602 102.315 188.792 102.414 188.997 102.446C189.202 102.478 189.412 102.443 189.597 102.344L192.507 100.691C192.665 100.603 192.844 100.563 193.023 100.575C193.202 100.587 193.375 100.651 193.52 100.759L196.386 102.893C196.551 103.017 196.75 103.082 196.953 103.08C197.157 103.078 197.354 103.009 197.517 102.882C197.679 102.755 197.797 102.577 197.854 102.375C197.911 102.173 197.904 101.958 197.833 101.761L194.485 92.037C194.427 91.852 194.317 91.6889 194.17 91.5678C194.022 91.4468 193.844 91.3732 193.656 91.3563C193.469 91.3394 193.28 91.3799 193.115 91.4728C192.949 91.5656 192.814 91.7068 192.726 91.8785Z" fill="white"/>
<path d="M199.922 69.1426C199.297 72.8555 198.738 79.6362 201.292 82.0417C201.292 82.0417 200.546 85.4038 193.746 86.5697C189.175 85.0528 190.178 82.3134 190.178 82.3134C194.146 81.238 193.976 78.1873 193.225 75.3346L199.922 69.1426Z" fill="#FFC3BD"/>
<path opacity="0.2" d="M197.192 71.6611L193.225 75.3062C193.409 75.9707 193.538 76.6506 193.608 77.3381C195.132 77.0778 197.187 75.3005 197.313 73.6535C197.39 72.9873 197.349 72.3121 197.192 71.6611Z" fill="#12517F"/>
<path d="M202.097 64.575C200.776 69.3973 200.244 72.2896 197.329 74.2649C192.945 77.2307 187.569 73.6989 187.465 68.554C187.366 63.9354 189.537 56.8208 194.589 55.9152C195.699 55.7118 196.841 55.8045 197.906 56.1845C198.971 56.5644 199.925 57.2191 200.677 58.0863C201.429 58.9536 201.954 60.0048 202.202 61.1403C202.451 62.2758 202.414 63.458 202.097 64.575Z" fill="#FFC3BD"/>
<path d="M199.286 67.5293C198.672 65.9898 198.228 60.9185 200.787 59.6733C203.346 58.4281 206.004 61.4675 205.33 62.9051C204.294 65.1352 200.71 71.0951 199.286 67.5293Z" fill="#12517F"/>
<path d="M200.814 61.4616C200.184 59.7636 192.671 58.8014 191.619 56.9732C190.369 54.7998 195.493 54.5394 199.017 55.6431C202.113 56.6166 204.179 57.5562 203.817 59.9334C203.614 61.2805 200.814 61.4616 200.814 61.4616Z" fill="#12517F"/>
<path d="M202.447 59.7127C202.447 59.7127 204.091 60.1768 204.99 58.9316C204.705 60.1655 203.308 61.4107 202.447 59.7127Z" fill="#12517F"/>
<path d="M194.924 54.4774C192.666 52.6662 189.592 54.7943 189.882 57.1546C190.173 59.5148 197.785 61.309 197.785 61.309C197.785 61.309 197.922 56.8829 194.924 54.4774Z" fill="#12517F"/>
<path d="M189.888 57.1659C190.233 58.8186 191.4 60.1147 193.762 61.0769C192.395 60.0329 191.359 58.5928 190.786 56.9395L189.888 57.1659Z" fill="#12517F"/>
<path d="M194.628 64.3315C194.546 64.7333 194.277 65.0107 194.025 64.9541C193.773 64.8975 193.636 64.5239 193.718 64.1277C193.8 63.7315 194.074 63.4541 194.326 63.5107C194.579 63.5673 194.716 63.9579 194.628 64.3315Z" fill="#12517F"/>
<path d="M190.277 63.3578C190.189 63.754 189.921 64.0313 189.669 63.9747C189.417 63.9181 189.28 63.5502 189.362 63.154C189.444 62.7578 189.718 62.4805 189.97 62.5314C190.222 62.5824 190.359 62.9616 190.277 63.3578Z" fill="#12517F"/>
<path d="M191.619 63.8672C190.903 64.9806 190.042 65.9863 189.06 66.8557C189.608 67.6651 190.83 67.6254 190.83 67.6254L191.619 63.8672Z" fill="#ED847E"/>
<path d="M191.717 68.9784C192.232 69.1104 192.77 69.1119 193.285 68.9828C193.8 68.8537 194.278 68.5978 194.677 68.2369C194.688 68.2259 194.696 68.2126 194.702 68.1981C194.708 68.1835 194.711 68.1678 194.711 68.152C194.711 68.1362 194.708 68.1206 194.702 68.106C194.696 68.0914 194.688 68.0782 194.677 68.0671C194.654 68.0456 194.625 68.0337 194.594 68.0337C194.564 68.0337 194.535 68.0456 194.512 68.0671C194.138 68.3924 193.695 68.6227 193.22 68.7396C192.744 68.8566 192.248 68.8569 191.772 68.7407C191.742 68.7339 191.71 68.74 191.684 68.7575C191.657 68.775 191.639 68.8025 191.632 68.8341C191.626 68.8656 191.632 68.8985 191.649 68.9256C191.666 68.9526 191.692 68.9716 191.723 68.9784H191.717Z" fill="#12517F"/>
<path d="M196.244 63.177C196.286 63.1856 196.33 63.1823 196.37 63.1673C196.411 63.1523 196.446 63.1263 196.473 63.0919C196.501 63.0575 196.518 63.0162 196.524 62.9723C196.53 62.9285 196.524 62.8838 196.507 62.843C196.359 62.4944 196.133 62.1873 195.847 61.9471C195.561 61.7069 195.224 61.5406 194.863 61.462C194.803 61.4538 194.741 61.4706 194.692 61.5086C194.643 61.5467 194.61 61.6031 194.6 61.6657C194.596 61.6966 194.597 61.7281 194.604 61.7584C194.611 61.7888 194.624 61.8174 194.642 61.8426C194.66 61.8678 194.682 61.8892 194.708 61.9055C194.734 61.9217 194.762 61.9326 194.792 61.9374C195.077 62.002 195.342 62.1358 195.566 62.3278C195.79 62.5198 195.966 62.7644 196.08 63.0411C196.095 63.0754 196.118 63.1055 196.147 63.1291C196.175 63.1526 196.209 63.169 196.244 63.177Z" fill="#12517F"/>
<path d="M188.688 61.3824C188.731 61.3947 188.776 61.3931 188.818 61.378C188.86 61.3628 188.897 61.3347 188.923 61.2975C189.097 61.0571 189.322 60.8621 189.582 60.7284C189.842 60.5947 190.129 60.526 190.419 60.5278C190.48 60.5338 190.541 60.5145 190.588 60.4741C190.636 60.4338 190.665 60.3757 190.671 60.3127C190.677 60.2496 190.658 60.1868 190.619 60.1379C190.58 60.0891 190.524 60.0583 190.463 60.0523C190.095 60.041 189.731 60.1216 189.399 60.2872C189.068 60.4527 188.781 60.6983 188.561 61.0032C188.542 61.0274 188.528 61.0554 188.519 61.0856C188.51 61.1158 188.508 61.1474 188.511 61.1787C188.515 61.2099 188.525 61.24 188.54 61.2673C188.555 61.2945 188.575 61.3183 188.6 61.3371C188.625 61.3598 188.655 61.3754 188.688 61.3824Z" fill="#12517F"/>
<path d="M210.038 86.6885C211.035 88.4884 211.868 90.2316 212.734 92.0259C213.6 93.8201 214.378 95.6256 215.117 97.4708C215.857 99.3159 216.575 101.189 217.2 103.131C217.849 105.067 218.398 107.037 218.844 109.034L219.178 110.579C219.324 111.305 219.387 112.046 219.364 112.787C219.318 114.163 219.022 115.519 218.493 116.783C217.563 118.913 216.239 120.835 214.597 122.443C213.132 123.904 211.535 125.217 209.829 126.365C209.002 126.931 208.147 127.452 207.287 127.95C206.426 128.448 205.571 128.906 204.612 129.342L202.793 126.054C203.456 125.488 204.185 124.922 204.864 124.311C205.544 123.699 206.207 123.077 206.865 122.454C208.134 121.237 209.312 119.922 210.388 118.52C211.345 117.318 212.087 115.95 212.58 114.479C212.75 113.931 212.817 113.355 212.778 112.781C212.762 112.55 212.719 112.322 212.651 112.102L212.279 110.834C211.172 107.317 209.854 103.875 208.333 100.527C207.582 98.8292 206.782 97.1312 205.982 95.4332C205.182 93.7352 204.338 92.0372 203.522 90.4241L210.038 86.6885Z" fill="#FFC3BD"/>
<path d="M209.029 82.8565C213.599 83.8753 216.778 96.1914 216.778 96.1914L208.607 103.849C206.009 100.864 203.966 97.4108 202.579 93.6614C200.414 87.4977 204.141 81.7584 209.029 82.8565Z" fill="#12517F"/>
<path d="M203.785 125.471L198.529 125.527L201.817 131.001C201.817 131.001 205.56 130.044 205.894 128.103L203.785 125.471Z" fill="#FFC3BD"/>
<path d="M195.258 128.759L198.157 133.151L201.79 131.001L198.529 125.527L195.258 128.759Z" fill="#FFC3BD"/>
<path d="M203.532 68.9895C202.949 70.0991 201.964 70.9252 200.792 71.2875C199.236 71.7573 198.441 70.3253 198.858 68.8028C199.236 67.433 200.502 65.5369 202.058 65.735C203.615 65.9331 204.228 67.6255 203.532 68.9895Z" fill="#FFC3BD"/>
<path d="M156.955 162.638L151.112 163.076L151.152 163.64L156.995 163.202L156.955 162.638Z" fill="#12517F"/>
<path d="M162.204 162.247L159.335 162.462L159.375 163.026L162.244 162.811L162.204 162.247Z" fill="#12517F"/>
<path d="M187.416 95.8066L90.6612 103.012C88.6475 103.174 86.777 104.15 85.4556 105.728C84.1341 107.306 83.4685 109.358 83.603 111.44L86.891 158.542C87.0467 160.625 87.9925 162.56 89.5227 163.927C91.0529 165.293 93.0436 165.98 95.0617 165.838L100.542 165.43C100.94 165.401 101.333 165.535 101.635 165.805C101.937 166.074 102.123 166.457 102.153 166.868L102.767 175.596C102.777 175.765 102.835 175.927 102.935 176.061C103.035 176.195 103.172 176.296 103.327 176.349C103.483 176.403 103.65 176.407 103.808 176.362C103.966 176.316 104.107 176.223 104.213 176.094L113.387 165.142C113.773 164.683 114.318 164.4 114.905 164.355L191.8 158.633C193.815 158.472 195.687 157.496 197.009 155.918C198.332 154.341 198.998 152.287 198.864 150.205L195.576 103.102C195.42 101.021 194.476 99.0881 192.948 97.7221C191.42 96.3561 189.432 95.6678 187.416 95.8066Z" fill="#12517F"/>
<path d="M104.794 124.633L110.022 124.243L110.449 130.355L116.159 129.931L115.732 123.818L120.982 123.422L122.204 140.889L116.954 141.279L116.461 134.215L110.751 134.646L111.244 141.709L106.021 142.1L104.794 124.633Z" fill="white"/>
<path opacity="0.2" d="M90.6612 103.012C88.6475 103.174 86.777 104.15 85.4556 105.728C84.1341 107.305 83.4685 109.358 83.603 111.439L86.891 158.542C87.0467 160.625 87.9925 162.56 89.5227 163.926C91.0529 165.293 93.0436 165.98 95.0617 165.838L95.8672 165.775C97.2057 165.675 98.4748 165.122 99.4775 164.201C100.48 163.28 101.161 162.043 101.413 160.681L112.433 101.387L90.6612 103.012Z" fill="#12517F"/>
<path d="M138.606 134.515L129.191 135.217C129.263 135.847 129.519 136.439 129.925 136.915C130.158 137.168 130.445 137.362 130.762 137.482C131.08 137.602 131.42 137.644 131.756 137.606C132.217 137.572 132.662 137.416 133.049 137.153C133.351 136.916 133.609 136.625 133.811 136.293L138.469 136.389C137.962 137.575 137.139 138.588 136.096 139.309C135.139 139.936 133.725 140.313 131.854 140.441C130.546 140.599 129.221 140.454 127.974 140.017C126.975 139.584 126.117 138.862 125.503 137.94C124.799 136.889 124.395 135.656 124.336 134.38C124.238 133.493 124.321 132.596 124.58 131.745C124.838 130.894 125.267 130.108 125.837 129.438C126.977 128.125 128.621 127.388 130.769 127.225C132.191 127.051 133.633 127.225 134.978 127.735C136.007 128.189 136.875 128.962 137.46 129.948C138.131 131.172 138.507 132.544 138.556 133.949L138.606 134.515ZM133.674 132.546C133.607 131.81 133.3 131.119 132.802 130.587C132.552 130.388 132.264 130.244 131.958 130.165C131.651 130.085 131.332 130.071 131.02 130.125C130.708 130.178 130.41 130.296 130.145 130.473C129.879 130.65 129.651 130.882 129.476 131.153C129.183 131.686 129.036 132.29 129.048 132.902L133.674 132.546Z" fill="white"/>
<path d="M140.058 122.001L144.765 121.65L145.987 139.111L141.28 139.462L140.058 122.001Z" fill="white"/>
<path d="M147.922 121.412L152.629 121.062L153.851 138.523L149.149 138.874L147.922 121.412Z" fill="white"/>
<path d="M155.835 132.053C155.746 131.167 155.838 130.272 156.106 129.426C156.374 128.579 156.812 127.801 157.391 127.14C158.564 125.793 160.224 125.039 162.372 124.876C164.82 124.695 166.723 125.291 168.082 126.665C169.211 127.894 169.863 129.509 169.915 131.203C169.966 132.897 169.414 134.551 168.362 135.851C167.2 137.187 165.516 137.942 163.309 138.115C161.595 138.328 159.863 137.906 158.421 136.927C157.654 136.377 157.021 135.65 156.572 134.805C156.123 133.959 155.871 133.017 155.835 132.053ZM160.542 131.691C160.533 132.584 160.83 133.452 161.38 134.142C161.602 134.377 161.871 134.559 162.168 134.675C162.465 134.792 162.783 134.841 163.099 134.818C163.416 134.796 163.725 134.702 164.003 134.544C164.282 134.387 164.524 134.168 164.712 133.904C165.155 133.116 165.321 132.195 165.183 131.295C165.189 130.419 164.896 129.57 164.356 128.895C164.145 128.656 163.883 128.47 163.592 128.352C163.3 128.235 162.986 128.188 162.674 128.216C162.348 128.231 162.03 128.324 161.745 128.487C161.46 128.65 161.215 128.879 161.03 129.155C160.588 129.917 160.423 130.815 160.564 131.691H160.542Z" fill="white"/>
<path d="M171.398 119.658L176.413 119.284L176.692 123.246L176.281 131.312L173.179 131.544L171.672 123.62L171.398 119.658ZM172.494 132.834L177.174 132.483L177.476 136.762L172.79 137.108L172.494 132.834Z" fill="white"/>
<path d="M89.3237 87.5037C89.2991 88.3323 89.3413 89.1615 89.4497 89.9828C84.484 91.6956 79.1883 92.1289 74.0235 91.245C74.2714 90.2769 74.422 89.2849 74.4728 88.2848C74.3001 89.2918 73.9609 90.2606 73.47 91.1488C72.4946 90.9563 71.9466 90.7922 71.9466 90.7922C71.9466 90.7922 72.9439 85.2228 71.1465 81.1702C69.3491 77.1176 70.2478 74.8536 71.6068 74.2141C74.1276 66.2108 83.6025 67.473 86.8083 70.7218C90.8745 74.8423 90.8964 86.451 91.6198 89.1055C91.0225 89.3715 90.4361 89.6149 89.8497 89.83C89.5561 89.0883 89.3785 88.3031 89.3237 87.5037Z" fill="#12517F"/>
<path d="M93.2416 99.9614L93.7348 101.575C93.9157 102.141 94.0965 102.707 94.2828 103.244C94.65 104.376 95.0336 105.508 95.4446 106.595C95.8556 107.682 96.2502 108.825 96.6776 109.934L97.3133 111.632L97.4722 112.051L97.5106 112.147C97.4428 112.086 97.3648 112.038 97.2804 112.006C97.1598 111.961 97.1105 112.006 97.1872 112.006C97.3192 112.005 97.4504 111.984 97.5763 111.944C98.0048 111.803 98.4166 111.614 98.8038 111.378C99.7384 110.815 100.632 110.183 101.478 109.487C102.366 108.774 103.237 108.01 104.092 107.223C104.947 106.436 105.807 105.616 106.635 104.812L108.317 106.284C107.616 107.325 106.876 108.276 106.125 109.244C105.374 110.212 104.53 111.117 103.665 112.017C102.773 112.957 101.803 113.813 100.766 114.576C100.172 115.005 99.5343 115.366 98.8641 115.651C98.4388 115.827 97.9929 115.945 97.538 116.002C96.9204 116.081 96.2934 115.994 95.7186 115.747C95.092 115.471 94.5582 115.011 94.1842 114.423C94.102 114.293 94.0253 114.162 93.965 114.044L93.817 113.738L93.6198 113.325C93.3622 112.759 93.0717 112.193 92.8471 111.661C92.3484 110.529 91.8497 109.397 91.3949 108.265C90.94 107.133 90.4962 105.967 90.0742 104.801C89.8769 104.235 89.6796 103.618 89.4933 103.023C89.307 102.429 89.1262 101.846 88.9453 101.15L93.2416 99.9614Z" fill="#FFC3BD"/>
<path d="M91.9429 94.9356C93.8335 95.4336 95.1542 103.46 95.1542 103.46L89.9482 107.116C89.9482 107.116 84.9614 99.0164 86.4136 96.8713C87.926 94.6412 89.1864 94.2111 91.9429 94.9356Z" fill="#12517F"/>
<path d="M91.9429 94.9356C93.8335 95.4336 95.1542 103.46 95.1542 103.46L89.9482 107.116C89.9482 107.116 84.9614 99.0164 86.4136 96.8713C87.926 94.6412 89.1864 94.2111 91.9429 94.9356Z" fill="#12517F"/>
<path opacity="0.4" d="M91.9429 94.9356C93.8335 95.4336 95.1542 103.46 95.1542 103.46L89.9482 107.116C89.9482 107.116 84.9614 99.0164 86.4136 96.8713C87.926 94.6412 89.1864 94.2111 91.9429 94.9356Z" fill="white"/>
<path opacity="0.3" d="M91.7739 96.7295L93.2261 104.818L90.2998 106.867L91.7739 96.7295Z" fill="#12517F"/>
<path d="M106.548 105.004L108.285 100.68L110.428 105.004C110.428 105.004 109.036 107.155 107.2 106.629L106.548 105.004Z" fill="#FFC3BD"/>
<path d="M110.197 100.233L112.948 101.376L110.427 105.004L108.279 100.68L110.197 100.233Z" fill="#FFC3BD"/>
<path d="M81.7227 230.051H86.3094L86.6163 219.087H82.0295L81.7227 230.051Z" fill="#FFC3BD"/>
<path d="M50.9697 215.929L55.1838 217.786L60.7022 208.299L56.4826 206.443L50.9697 215.929Z" fill="#FFC3BD"/>
<path d="M55.9945 217.14L51.6105 214.356C51.5356 214.306 51.4455 214.287 51.3575 214.301C51.2695 214.316 51.1898 214.363 51.1338 214.435L48.4979 217.701C48.4323 217.786 48.3852 217.885 48.3597 217.991C48.3343 218.097 48.331 218.207 48.3502 218.314C48.3694 218.422 48.4107 218.523 48.4711 218.613C48.5315 218.702 48.6098 218.777 48.7006 218.833C50.246 219.778 51.0351 220.152 52.9641 221.374C54.1532 222.133 55.8082 223.355 57.4467 224.397C59.0852 225.438 60.1867 223.831 59.5784 223.236C56.9206 220.616 56.9974 219.37 56.4987 217.82C56.4158 217.538 56.2367 217.296 55.9945 217.14Z" fill="#12517F"/>
<path d="M86.4634 229.502H81.3177C81.2291 229.501 81.1431 229.533 81.0757 229.592C81.0082 229.652 80.9637 229.734 80.9505 229.825L80.3642 234.036C80.3498 234.144 80.3584 234.254 80.3893 234.358C80.4201 234.462 80.4726 234.558 80.5429 234.639C80.6133 234.721 80.6999 234.785 80.7967 234.829C80.8936 234.872 80.9984 234.893 81.104 234.89C82.9014 234.862 83.7672 234.749 86.036 234.749C87.4279 234.749 90.3104 234.902 92.2338 234.902C94.1573 234.902 94.256 232.938 93.4559 232.756C89.8665 231.958 88.4526 230.86 87.2416 229.813C87.0271 229.616 86.7507 229.505 86.4634 229.502Z" fill="#12517F"/>
<path opacity="0.2" d="M86.6113 219.093L86.4579 224.742H81.8711L82.03 219.093H86.6113Z" fill="#12517F"/>
<path opacity="0.2" d="M56.4818 206.449L60.6959 208.3L57.8518 213.19L53.6377 211.333L56.4818 206.449Z" fill="#12517F"/>
<path d="M91.9431 94.9354C91.9431 94.9354 94.1351 95.7278 89.7511 123.501H71.1191C71.4314 115.679 71.4424 110.857 67.8311 94.7995C70.4363 94.2434 73.0774 93.884 75.7332 93.7241C78.5481 93.5145 81.374 93.5145 84.1889 93.7241C87.8276 94.0637 91.9431 94.9354 91.9431 94.9354Z" fill="#12517F"/>
<path opacity="0.4" d="M91.9431 94.9354C91.9431 94.9354 94.1351 95.7278 89.7511 123.501H71.1191C71.4314 115.679 71.4424 110.857 67.8311 94.7995C70.4363 94.2434 73.0774 93.884 75.7332 93.7241C78.5481 93.5145 81.374 93.5145 84.1889 93.7241C87.8276 94.0637 91.9431 94.9354 91.9431 94.9354Z" fill="white"/>
<path d="M75.7441 93.7185C78.5592 93.5144 81.3847 93.5144 84.1997 93.7185C84.6546 93.7638 85.1204 93.8147 85.5807 93.8713C85.7723 94.1688 85.8952 94.5077 85.9398 94.862C85.9845 95.2163 85.9497 95.5764 85.8383 95.9146C85.2409 97.4371 83.0983 97.6126 81.542 97.6126C75.7825 97.6126 74.807 94.1374 74.7687 93.9902L74.7139 93.7808L75.7441 93.7185Z" fill="white"/>
<path d="M76.5826 83.8926C77.1306 86.7226 77.6512 91.8505 75.7441 93.724C75.7441 93.724 76.4894 96.554 81.542 96.554C87.0987 96.554 84.1998 93.724 84.1998 93.724C81.1639 92.9769 81.2461 90.6506 81.7721 88.4715L76.5826 83.8926Z" fill="#FFC3BD"/>
<path d="M77.1368 81.8945C76.4847 84.1189 77.3889 89.3827 78.7315 91.4203C76.0846 89.8525 75.1914 85.0754 75.1914 85.0754L77.1368 81.8945Z" fill="#12517F"/>
<path opacity="0.2" d="M78.6982 85.7603L81.7725 88.4657C81.6376 88.9729 81.5496 89.4922 81.5095 90.0166C80.3532 89.8411 78.7695 88.528 78.638 87.2771C78.5699 86.7719 78.5903 86.2581 78.6982 85.7603Z" fill="#12517F"/>
<path d="M74.0734 78.8778C75.1365 83.4454 75.4873 85.4038 78.1505 87.3678C82.1564 90.3167 87.3569 87.9734 87.6364 83.1681C87.8885 78.8438 86.113 72.1028 81.4276 71.0613C80.3952 70.8259 79.3218 70.8669 78.3091 71.1804C77.2964 71.4939 76.3781 72.0695 75.6413 72.8526C74.9045 73.6357 74.3737 74.6003 74.0993 75.6548C73.8249 76.7093 73.816 77.8187 74.0734 78.8778Z" fill="#FFC3BD"/>
<path d="M89.7571 123.502C89.7571 123.502 93.3684 159.963 93.0451 174.396C92.7328 189.407 87.4062 223.638 87.4062 223.638H81.2138C81.2138 223.638 82.1947 190.273 81.6467 175.528C81.0494 159.454 76.1064 123.49 76.1064 123.49L89.7571 123.502Z" fill="#12517F"/>
<path opacity="0.4" d="M89.7571 123.502C89.7571 123.502 93.3684 159.963 93.0451 174.396C92.7328 189.407 87.4062 223.638 87.4062 223.638H81.2138C81.2138 223.638 82.1947 190.273 81.6467 175.528C81.0494 159.454 76.1064 123.49 76.1064 123.49L89.7571 123.502Z" fill="#12517F"/>
<path d="M80.6982 223.876H87.9646L88.5017 221.482L80.3584 221.188L80.6982 223.876Z" fill="#12517F"/>
<path opacity="0.2" d="M81.7288 132.574C86.2991 142.072 82.6439 159.397 81.0273 165.844C80.1998 156.165 78.8024 144.336 77.7119 135.636C78.4024 130.746 79.619 128.193 81.7288 132.574Z" fill="#12517F"/>
<path d="M84.8408 123.501C84.8408 123.501 80.6212 161.423 77.4373 173.575C73.6616 188.025 59.2876 212.629 59.2876 212.629L53.5391 210.105C53.5391 210.105 62.4331 182.167 65.3265 174.555C71.4915 158.31 66.2143 134.103 71.1408 123.501H84.8408Z" fill="#12517F"/>
<path opacity="0.4" d="M84.8408 123.501C84.8408 123.501 80.6212 161.423 77.4373 173.575C73.6616 188.025 59.2876 212.629 59.2876 212.629L53.5391 210.105C53.5391 210.105 62.4331 182.167 65.3265 174.555C71.4915 158.31 66.2143 134.103 71.1408 123.501H84.8408Z" fill="#12517F"/>
<path d="M52.7451 210.122L59.8801 213.258L61.5953 211.277L53.3644 207.196L52.7451 210.122Z" fill="#12517F"/>
<path d="M81.1036 78.9403C81.1694 79.3139 81.4105 79.5855 81.6516 79.5403C81.8927 79.495 82.0297 79.1554 81.964 78.7818C81.8982 78.4083 81.6571 78.1366 81.416 78.1762C81.1749 78.2158 81.0104 78.5611 81.1036 78.9403Z" fill="#12517F"/>
<path d="M85.1918 78.1932C85.2521 78.5668 85.4987 78.8385 85.7398 78.7932C85.9809 78.7479 86.1234 78.4083 86.0576 78.0347C85.9919 77.6612 85.7508 77.3895 85.5096 77.4291C85.2685 77.4688 85.1261 77.814 85.1918 78.1932Z" fill="#12517F"/>
<path d="M85.4053 77.4743L86.2328 77.0498C86.2328 77.0498 85.904 77.8365 85.4053 77.4743Z" fill="#12517F"/>
<path d="M84.2109 79.0366C84.6814 79.8354 85.2568 80.5631 85.9207 81.1987C85.758 81.3688 85.5616 81.5004 85.345 81.5844C85.1283 81.6684 84.8966 81.7029 84.6658 81.6855L84.2109 79.0366Z" fill="#ED847E"/>
<path d="M83.0168 83.4569C83.2244 83.4565 83.4316 83.4376 83.636 83.4003C83.6517 83.3997 83.667 83.3956 83.681 83.3883C83.695 83.381 83.7073 83.3707 83.7171 83.3581C83.7269 83.3455 83.734 83.3308 83.7378 83.3152C83.7417 83.2995 83.7423 83.2831 83.7395 83.2672C83.7367 83.2513 83.7307 83.2362 83.7218 83.2229C83.7129 83.2096 83.7013 83.1984 83.6879 83.1901C83.6744 83.1818 83.6594 83.1765 83.6439 83.1747C83.6283 83.1729 83.6126 83.1746 83.5977 83.1796C83.1464 83.2725 82.6803 83.2537 82.2374 83.1248C81.7945 82.9959 81.3874 82.7606 81.0495 82.4381C81.029 82.4174 81.0014 82.4058 80.9727 82.4058C80.9441 82.4058 80.9165 82.4174 80.896 82.4381C80.8854 82.4482 80.8769 82.4604 80.8711 82.4741C80.8653 82.4877 80.8623 82.5025 80.8623 82.5174C80.8623 82.5323 80.8653 82.547 80.8711 82.5606C80.8769 82.5743 80.8854 82.5865 80.896 82.5966C81.468 83.1569 82.2285 83.4654 83.0168 83.4569Z" fill="#12517F"/>
<path d="M75.6243 76.2009C75.7441 77.4045 75.927 78.6005 76.1723 79.7837C76.1723 79.7837 78.9123 76.2009 79.3671 74.2822C79.2584 75.0376 79.0462 75.7732 78.7369 76.4669C78.7369 76.4669 82.4249 75.6349 82.7866 73.1219C82.7804 74.2469 82.6591 75.3682 82.4249 76.4669C82.4249 76.4669 85.9431 75.0406 85.6198 72.6295C85.2965 70.2183 79.8932 69.2844 77.3998 70.0994C74.9064 70.9145 72.4678 73.5577 73.2021 77.1914C73.9364 80.8251 75.3448 82.1892 75.3448 82.1892C75.3448 82.1892 74.331 78.5272 75.6243 76.2009Z" fill="#12517F"/>
<path d="M73.8815 82.3194C74.2198 83.1578 74.8662 83.8234 75.679 84.1702C76.775 84.623 77.4271 83.6551 77.2353 82.5345C77.0654 81.5213 76.2927 80.0723 75.1583 80.095C74.9101 80.1063 74.6686 80.1814 74.4555 80.3133C74.2423 80.4452 74.0644 80.6299 73.9377 80.8506C73.811 81.0714 73.7395 81.3212 73.7297 81.5777C73.7199 81.8341 73.7721 82.089 73.8815 82.3194Z" fill="#FFC3BD"/>
<path d="M76.2869 74.4575C75.7389 76.7215 76.8788 81.9287 78.3145 83.8927C75.5745 82.4608 74.4785 77.729 74.4785 77.729L76.2869 74.4575Z" fill="#12517F"/>
<path d="M79.6021 77.6498C79.6302 77.641 79.6564 77.6264 79.679 77.607C79.7016 77.5875 79.7201 77.5636 79.7336 77.5366C79.8491 77.2812 80.0216 77.0578 80.2369 76.8847C80.4521 76.7115 80.7041 76.5935 80.9721 76.5404C81.0287 76.5319 81.0802 76.5015 81.1158 76.4552C81.1515 76.4089 81.1687 76.3503 81.1639 76.2914C81.1612 76.2618 81.1527 76.2331 81.139 76.2069C81.1253 76.1808 81.1067 76.1578 81.0841 76.1393C81.0616 76.1208 81.0357 76.1072 81.008 76.0993C80.9803 76.0914 80.9513 76.0893 80.9228 76.0933C80.5828 76.1542 80.262 76.2986 79.9873 76.5143C79.7127 76.73 79.4922 77.0107 79.3445 77.3328C79.3259 77.3722 79.3187 77.4162 79.3239 77.4597C79.329 77.5032 79.3463 77.5442 79.3736 77.5777C79.4008 77.6113 79.4369 77.6359 79.4775 77.6487C79.518 77.6615 79.5613 77.6619 79.6021 77.6498Z" fill="#12517F"/>
<path d="M86.688 75.895C86.7156 75.8962 86.743 75.8912 86.7686 75.8805C86.7941 75.8698 86.8171 75.8535 86.836 75.8327C86.8761 75.7904 86.8986 75.7335 86.8986 75.6742C86.8986 75.615 86.8761 75.5581 86.836 75.5157C86.6023 75.2545 86.3124 75.0538 85.9896 74.9299C85.6668 74.806 85.3204 74.7624 84.9783 74.8026C84.9498 74.808 84.9226 74.8192 84.8983 74.8356C84.874 74.8519 84.8531 74.8731 84.8368 74.8978C84.8205 74.9225 84.8091 74.9504 84.8033 74.9797C84.7975 75.009 84.7973 75.0392 84.8029 75.0686C84.8148 75.1258 84.8477 75.1761 84.8947 75.2088C84.9417 75.2415 84.9991 75.2542 85.055 75.2441C85.3248 75.2129 85.5979 75.2479 85.8521 75.3463C86.1063 75.4446 86.3345 75.6035 86.5181 75.8101C86.5385 75.8364 86.5644 75.8577 86.5938 75.8724C86.6232 75.887 86.6554 75.8948 86.688 75.895Z" fill="#12517F"/>
<path d="M70.1057 101.518C69.344 104.003 68.6151 106.612 67.9959 109.182C67.3726 111.718 66.9167 114.296 66.6314 116.896L66.5875 117.372C66.5875 117.525 66.5875 117.558 66.5875 117.694C66.5936 117.961 66.6137 118.228 66.6478 118.492C66.7176 119.112 66.8182 119.728 66.9492 120.338C67.2068 121.6 67.4972 122.902 67.8698 124.192C68.2425 125.482 68.5603 126.796 68.933 128.097L70.029 132.003L67.9959 132.869C66.7465 130.401 65.6614 127.888 64.6476 125.296C64.1599 123.994 63.6831 122.681 63.2886 121.294C63.0913 120.604 62.905 119.896 62.7406 119.126C62.6625 118.719 62.6076 118.307 62.5762 117.892C62.5762 117.683 62.5762 117.372 62.5762 117.185V116.619C62.6226 115.177 62.7507 113.738 62.9598 112.312C63.1406 110.897 63.4091 109.516 63.6996 108.14C64.2698 105.386 65.0018 102.67 65.8916 100.007L70.1057 101.518Z" fill="#FFC3BD"/>
<path d="M67.8418 94.7997C65.9786 95.3657 63.7373 102.016 63.7373 102.016L70.9709 107.359C70.9709 107.359 73.6123 101.824 72.8286 99.3334C72.0121 96.7411 69.9735 94.1318 67.8418 94.7997Z" fill="#12517F"/>
<path opacity="0.4" d="M67.8418 94.7997C65.9786 95.3657 63.7373 102.016 63.7373 102.016L70.9709 107.359C70.9709 107.359 73.6123 101.824 72.8286 99.3334C72.0121 96.7411 69.9735 94.1318 67.8418 94.7997Z" fill="white"/>
<path d="M57.8466 218.94C57.9357 218.908 58.0168 218.855 58.084 218.787C58.1513 218.718 58.2031 218.635 58.2357 218.544C58.2673 218.485 58.284 218.419 58.284 218.351C58.284 218.284 58.2673 218.218 58.2357 218.159C57.9069 217.661 56.2464 217.7 56.0437 217.706C56.0227 217.707 56.0022 217.713 55.9847 217.725C55.9672 217.737 55.9534 217.754 55.945 217.774C55.9344 217.792 55.9287 217.813 55.9287 217.833C55.9287 217.854 55.9344 217.875 55.945 217.893C56.3779 218.34 57.189 219.07 57.7589 218.957L57.8466 218.94ZM56.3067 217.91C56.9698 217.91 57.8576 218.006 58.0329 218.272C58.0479 218.298 58.0558 218.327 58.0558 218.357C58.0558 218.387 58.0479 218.416 58.0329 218.442C58.0087 218.51 57.9685 218.571 57.9159 218.62C57.8633 218.668 57.8 218.702 57.7315 218.719C57.4301 218.799 56.904 218.476 56.3067 217.91Z" fill="#12517F"/>
<path d="M56.7942 217.791C57.2983 217.627 57.8354 217.339 57.9504 217.016C57.979 216.932 57.9794 216.841 57.9516 216.756C57.9238 216.672 57.8693 216.6 57.797 216.552C57.7332 216.497 57.6581 216.458 57.5774 216.437C57.4967 216.416 57.4125 216.415 57.3312 216.433C56.6791 216.552 55.9776 217.706 55.9502 217.757C55.9406 217.775 55.9355 217.794 55.9355 217.814C55.9355 217.834 55.9406 217.853 55.9502 217.871C55.9601 217.887 55.9737 217.901 55.99 217.911C56.0062 217.921 56.0246 217.926 56.0434 217.927C56.2987 217.92 56.5516 217.874 56.7942 217.791ZM57.2983 216.659H57.3696C57.4211 216.648 57.4743 216.649 57.5255 216.662C57.5767 216.675 57.6245 216.699 57.6655 216.733C57.7751 216.823 57.7641 216.891 57.7477 216.942C57.6381 217.254 56.8051 217.627 56.2516 217.701C56.5034 217.266 56.8653 216.909 57.2983 216.671V216.659Z" fill="#12517F"/>
<path d="M88.1839 230.328C88.5702 230.361 88.956 230.259 89.2799 230.039C89.3552 229.969 89.4126 229.88 89.447 229.782C89.4814 229.683 89.4918 229.577 89.4772 229.473C89.4729 229.412 89.4535 229.353 89.4209 229.301C89.3883 229.25 89.3436 229.208 89.2909 229.179C88.7429 228.862 86.9071 229.824 86.6988 229.932C86.6787 229.94 86.6615 229.955 86.6494 229.973C86.6373 229.992 86.6309 230.014 86.6309 230.036C86.6309 230.059 86.6373 230.081 86.6494 230.1C86.6615 230.118 86.6787 230.133 86.6988 230.141C87.1865 230.255 87.684 230.318 88.1839 230.328ZM89.0004 229.349C89.0701 229.344 89.1399 229.358 89.2032 229.388C89.2248 229.401 89.2428 229.419 89.2554 229.441C89.2679 229.462 89.2745 229.487 89.2744 229.513C89.2846 229.578 89.279 229.645 89.2579 229.707C89.2369 229.769 89.2011 229.825 89.1539 229.87C88.8744 230.13 88.1181 230.175 87.1043 230C87.6961 229.673 88.3373 229.453 89.0004 229.349Z" fill="#12517F"/>
<path d="M86.7649 230.164H86.8088C87.3568 229.909 88.4528 228.89 88.3541 228.353C88.3541 228.223 88.2445 228.07 87.9431 228.036C87.8353 228.023 87.726 228.034 87.6223 228.067C87.5186 228.1 87.4226 228.155 87.3403 228.228C86.7923 228.726 86.6608 230 86.6553 230.051C86.6547 230.071 86.6588 230.09 86.6674 230.108C86.676 230.126 86.6888 230.141 86.7047 230.153C86.7226 230.164 86.7442 230.168 86.7649 230.164ZM87.8609 228.245H87.9267C88.124 228.245 88.1404 228.353 88.1404 228.375C88.1952 228.698 87.4609 229.507 86.9019 229.853C86.9458 229.315 87.1507 228.804 87.4883 228.392C87.5888 228.298 87.7197 228.246 87.8555 228.245H87.8609Z" fill="#12517F"/>
<path d="M70.8617 122.375L70.3904 124.073C70.3246 124.203 70.4781 124.339 70.6918 124.339H89.8718C90.0417 124.339 90.1787 124.254 90.1896 124.146L90.3595 122.448C90.3595 122.33 90.2225 122.228 90.0417 122.228H71.1685C71.1095 122.223 71.0502 122.234 70.9965 122.26C70.9427 122.285 70.8963 122.325 70.8617 122.375Z" fill="#12517F"/>
<path d="M73.3937 124.549H72.884C72.7854 124.549 72.7087 124.498 72.7141 124.43L72.9498 122.166C72.9498 122.103 73.0484 122.047 73.1471 122.047H73.6512C73.7553 122.047 73.8266 122.103 73.8211 122.166L73.5855 124.43C73.5855 124.52 73.4978 124.549 73.3937 124.549Z" fill="#12517F"/>
<path opacity="0.4" d="M73.3937 124.549H72.884C72.7854 124.549 72.7087 124.498 72.7141 124.43L72.9498 122.166C72.9498 122.103 73.0484 122.047 73.1471 122.047H73.6512C73.7553 122.047 73.8266 122.103 73.8211 122.166L73.5855 124.43C73.5855 124.52 73.4978 124.549 73.3937 124.549Z" fill="#12517F"/>
<path d="M88.4253 124.549H87.9211C87.8225 124.549 87.7458 124.498 87.7513 124.43L87.9924 122.166C87.9924 122.103 88.0855 122.047 88.1842 122.047H88.6883C88.7924 122.047 88.8692 122.103 88.8582 122.166L88.6226 124.43C88.6171 124.52 88.5294 124.549 88.4253 124.549Z" fill="#12517F"/>
<path opacity="0.4" d="M88.4253 124.549H87.9211C87.8225 124.549 87.7458 124.498 87.7513 124.43L87.9924 122.166C87.9924 122.103 88.0855 122.047 88.1842 122.047H88.6883C88.7924 122.047 88.8692 122.103 88.8582 122.166L88.6226 124.43C88.6171 124.52 88.5294 124.549 88.4253 124.549Z" fill="#12517F"/>
<path d="M80.9124 124.549H80.4082C80.3041 124.549 80.2274 124.498 80.2383 124.43L80.474 122.166C80.474 122.103 80.5672 122.047 80.6713 122.047H81.1754C81.2741 122.047 81.3508 122.103 81.3453 122.166L81.1097 124.43C81.1042 124.52 81.011 124.549 80.9124 124.549Z" fill="#12517F"/>
<path opacity="0.4" d="M80.9124 124.549H80.4082C80.3041 124.549 80.2274 124.498 80.2383 124.43L80.474 122.166C80.474 122.103 80.5672 122.047 80.6713 122.047H81.1754C81.2741 122.047 81.3508 122.103 81.3453 122.166L81.1097 124.43C81.1042 124.52 81.011 124.549 80.9124 124.549Z" fill="#12517F"/>
<path d="M81.29 78.2157L82.1175 77.7969C82.1175 77.7969 81.7887 78.5836 81.29 78.2157Z" fill="#12517F"/>
<path d="M69.8758 131.363L73.805 134.476L69.2511 135.512C69.2511 135.512 67.3167 133.248 67.9852 131.38L69.8758 131.363Z" fill="#FFC3BD"/>
<path d="M74.7689 138.331L70.911 138.981L68.8066 134.895L73.8044 134.476L74.7689 138.331Z" fill="#FFC3BD"/>
</svg>
