<svg width="31" height="30" viewBox="0 0 31 30" fill="none" xmlns="http://www.w3.org/2000/svg">
<path d="M24.123 15.8125V20.4375C24.123 24.3375 20.4855 27.5 15.998 27.5C11.5105 27.5 7.87305 24.3375 7.87305 20.4375V15.8125C7.87305 19.7125 11.5105 22.5 15.998 22.5C20.4855 22.5 24.123 19.7125 24.123 15.8125Z" stroke="white" stroke-width="2" stroke-linecap="round" stroke-linejoin="round"/>
<path d="M24.123 9.5625C24.123 10.7 23.8105 11.75 23.2605 12.65C21.923 14.85 19.173 16.25 15.998 16.25C12.823 16.25 10.073 14.85 8.73555 12.65C8.18555 11.75 7.87305 10.7 7.87305 9.5625C7.87305 7.6125 8.78553 5.85 10.248 4.575C11.723 3.2875 13.748 2.5 15.998 2.5C18.248 2.5 20.273 3.2875 21.748 4.5625C23.2105 5.85 24.123 7.6125 24.123 9.5625Z" stroke="white" stroke-width="2" stroke-linecap="round" stroke-linejoin="round"/>
<path d="M24.123 9.5625V15.8125C24.123 19.7125 20.4855 22.5 15.998 22.5C11.5105 22.5 7.87305 19.7125 7.87305 15.8125V9.5625C7.87305 5.6625 11.5105 2.5 15.998 2.5C18.248 2.5 20.273 3.2875 21.748 4.5625C23.2105 5.85 24.123 7.6125 24.123 9.5625Z" stroke="white" stroke-width="2" stroke-linecap="round" stroke-linejoin="round"/>
</svg>
