<svg width="31" height="30" viewBox="0 0 31 30" fill="none" xmlns="http://www.w3.org/2000/svg">
<path d="M22.248 16.75V20.5C22.248 25.5 20.248 27.5 15.248 27.5H10.498C5.49805 27.5 3.49805 25.5 3.49805 20.5V15.75C3.49805 10.75 5.49805 8.75 10.498 8.75H14.248" stroke="white" stroke-width="2" stroke-linecap="round" stroke-linejoin="round"/>
<path d="M22.248 16.75H18.248C15.248 16.75 14.248 15.75 14.248 12.75V8.75L22.248 16.75Z" stroke="white" stroke-width="2" stroke-linecap="round" stroke-linejoin="round"/>
<path d="M15.498 2.5H20.498" stroke="white" stroke-width="2" stroke-linecap="round" stroke-linejoin="round"/>
<path d="M9.74805 6.25C9.74805 4.175 11.423 2.5 13.498 2.5H16.773" stroke="white" stroke-width="2" stroke-linecap="round" stroke-linejoin="round"/>
<path d="M28.4979 10V17.7375C28.4979 19.675 26.9229 21.25 24.9854 21.25" stroke="white" stroke-width="2" stroke-linecap="round" stroke-linejoin="round"/>
<path d="M28.498 10H24.748C21.9355 10 20.998 9.0625 20.998 6.25V2.5L28.498 10Z" stroke="white" stroke-width="2" stroke-linecap="round" stroke-linejoin="round"/>
</svg>
