<svg width="31" height="30" viewBox="0 0 31 30" fill="none" xmlns="http://www.w3.org/2000/svg">
<path d="M28.498 10.65V4.975C28.498 3.2125 27.698 2.5 25.7105 2.5H20.6605C18.673 2.5 17.873 3.2125 17.873 4.975V10.6375C17.873 12.4125 18.673 13.1125 20.6605 13.1125H25.7105C27.698 13.125 28.498 12.4125 28.498 10.65Z" stroke="white" stroke-width="2" stroke-linecap="round" stroke-linejoin="round"/>
<path d="M28.498 24.7125V19.6625C28.498 17.675 27.698 16.875 25.7105 16.875H20.6605C18.673 16.875 17.873 17.675 17.873 19.6625V24.7125C17.873 26.7 18.673 27.5 20.6605 27.5H25.7105C27.698 27.5 28.498 26.7 28.498 24.7125Z" stroke="white" stroke-width="2" stroke-linecap="round" stroke-linejoin="round"/>
<path d="M14.123 10.65V4.975C14.123 3.2125 13.323 2.5 11.3355 2.5H6.28555C4.29805 2.5 3.49805 3.2125 3.49805 4.975V10.6375C3.49805 12.4125 4.29805 13.1125 6.28555 13.1125H11.3355C13.323 13.125 14.123 12.4125 14.123 10.65Z" stroke="white" stroke-width="2" stroke-linecap="round" stroke-linejoin="round"/>
<path d="M14.123 24.7125V19.6625C14.123 17.675 13.323 16.875 11.3355 16.875H6.28555C4.29805 16.875 3.49805 17.675 3.49805 19.6625V24.7125C3.49805 26.7 4.29805 27.5 6.28555 27.5H11.3355C13.323 27.5 14.123 26.7 14.123 24.7125Z" stroke="white" stroke-width="2" stroke-linecap="round" stroke-linejoin="round"/>
</svg>
