<svg width="31" height="30" viewBox="0 0 31 30" fill="none" xmlns="http://www.w3.org/2000/svg">
<path d="M15.998 27.5C22.9016 27.5 28.498 21.9036 28.498 15C28.498 8.09644 22.9016 2.5 15.998 2.5C9.09449 2.5 3.49805 8.09644 3.49805 15C3.49804 27.5 3.49806 27.5 15.998 27.5Z" stroke="white" stroke-width="2" stroke-linecap="round" stroke-linejoin="round"/>
<path d="M12.3604 11.2502C12.6542 10.4148 13.2343 9.71036 13.9978 9.26164C14.7613 8.81292 15.659 8.6489 16.5318 8.79861C17.4047 8.94833 18.1964 9.40213 18.7667 10.0796C19.337 10.7571 19.6492 11.6146 19.6479 12.5002C19.6479 15.0002 15.8979 16.2502 15.8979 16.2502" stroke="white" stroke-width="2" stroke-linecap="round" stroke-linejoin="round"/>
<path d="M15.998 21.25H16.0098" stroke="white" stroke-width="2" stroke-linecap="round" stroke-linejoin="round"/>
</svg>
