<svg width="31" height="30" viewBox="0 0 31 30" fill="none" xmlns="http://www.w3.org/2000/svg">
<path d="M11.623 23.75H10.998C5.99805 23.75 3.49805 22.5 3.49805 16.25V10C3.49805 5 5.99805 2.5 10.998 2.5H20.998C25.998 2.5 28.498 5 28.498 10V16.25C28.498 21.25 25.998 23.75 20.998 23.75H20.373C19.9855 23.75 19.6105 23.9375 19.373 24.25L17.498 26.75C16.673 27.85 15.323 27.85 14.498 26.75L12.623 24.25C12.423 23.975 11.9605 23.75 11.623 23.75Z" stroke="white" stroke-width="2" stroke-miterlimit="10" stroke-linecap="round" stroke-linejoin="round"/>
<path d="M9.74805 10H22.248" stroke="white" stroke-width="2" stroke-linecap="round" stroke-linejoin="round"/>
<path d="M9.74805 16.25H17.248" stroke="white" stroke-width="2" stroke-linecap="round" stroke-linejoin="round"/>
</svg>
