<svg width="45" height="45" viewBox="0 0 45 45" fill="none" xmlns="http://www.w3.org/2000/svg">
<path d="M0 0H35C40.5228 0 45 4.47715 45 10V45H10C4.47715 45 0 40.5228 0 35V0Z" fill="#F2FAFF"/>
<path d="M19.25 20.75V28.25L21.75 25.75" stroke="#12517F" stroke-width="1.5" stroke-linecap="round" stroke-linejoin="round"/>
<path d="M19.25 28.25L16.75 25.75" stroke="#12517F" stroke-width="1.5" stroke-linecap="round" stroke-linejoin="round"/>
<path d="M35.5 19.5V25.75C35.5 32 33 34.5 26.75 34.5H19.25C13 34.5 10.5 32 10.5 25.75V18.25C10.5 12 13 9.5 19.25 9.5H25.5" stroke="#12517F" stroke-width="1.5" stroke-linecap="round" stroke-linejoin="round"/>
<path d="M35.5 19.5H30.5C26.75 19.5 25.5 18.25 25.5 14.5V9.5L35.5 19.5Z" stroke="#12517F" stroke-width="1.5" stroke-linecap="round" stroke-linejoin="round"/>
</svg>
